<svg width="13" height="18" viewBox="0 0 13 18" fill="none" xmlns="http://www.w3.org/2000/svg">
<path d="M12.1646 0.589722H1.00002C0.769446 0.589722 0.582276 0.776724 0.582276 1.00746V16.6529C0.58195 16.9663 0.757044 17.2535 1.03576 17.3968C1.31464 17.5399 1.65014 17.5149 1.90454 17.332L6.58232 13.9789L11.2603 17.3319C11.5148 17.5145 11.85 17.5393 12.1287 17.3961C12.4073 17.253 12.5825 16.966 12.5825 16.6529V1.00746C12.5825 0.776724 12.3953 0.589722 12.1646 0.589722ZM11.7469 16.6527L6.82595 13.1253C6.68039 13.021 6.48457 13.021 6.33918 13.1253L1.41809 16.6529V1.4252H11.7469V16.6527Z" fill="white"/>
</svg>
