<svg width="20" height="21" viewBox="0 0 20 21" fill="none" xmlns="http://www.w3.org/2000/svg">
<path d="M8.80743 0.0393677C3.95115 0.0393677 0 3.99058 0 8.84694C0 13.7036 3.95115 17.6545 8.80743 17.6545C13.664 17.6545 17.6149 13.7036 17.6149 8.84694C17.6149 3.99058 13.664 0.0393677 8.80743 0.0393677ZM8.80743 16.0285C4.84762 16.0285 1.62599 12.8069 1.62599 8.84698C1.62599 4.8871 4.84762 1.66538 8.80743 1.66538C12.7673 1.66538 15.9889 4.88706 15.9889 8.84694C15.9889 12.8068 12.7673 16.0285 8.80743 16.0285Z" fill="#AEAEAE"/>
<path d="M19.7619 18.6515L15.1006 13.9903C14.783 13.6727 14.2686 13.6727 13.951 13.9903C13.6334 14.3076 13.6334 14.8226 13.951 15.1399L18.6123 19.8011C18.7711 19.9599 18.979 20.0393 19.1871 20.0393C19.3949 20.0393 19.6031 19.9599 19.7619 19.8011C20.0795 19.4838 20.0795 18.9689 19.7619 18.6515Z" fill="#AEAEAE"/>
</svg>
